<?xml version="1.0"?>
<svg xmlns="http://www.w3.org/2000/svg" viewBox="0 -3 104 104" role="img" aria-label="SVA"><defs><mask id="fa" maskUnits="userSpaceOnUse" x="-80" y="-80" width="260" height="260"><rect x="-80" y="-80" width="260" height="260" fill="#000"></rect><g transform="rotate(-25 50 50)"><ellipse cx="45" cy="41" rx="41" ry="25.5" fill="#fff"></ellipse><ellipse cx="57.5" cy="52" rx="41" ry="25.5" fill="#000"></ellipse><ellipse cx="42.5" cy="49" rx="12.5" ry="8" fill="#000"></ellipse></g></mask><mask id="fb" maskUnits="userSpaceOnUse" x="-80" y="-80" width="260" height="260"><rect x="-80" y="-80" width="260" height="260" fill="#000"></rect><g transform="rotate(-25 50 50)"><ellipse cx="45" cy="41" rx="41" ry="25.5" fill="#fff"></ellipse><ellipse cx="57.5" cy="52" rx="41" ry="25.5" fill="#000"></ellipse><ellipse cx="42.5" cy="49" rx="12.5" ry="8" fill="#000"></ellipse></g></mask></defs><g fill="#0A1858"><rect x="-80" y="-80" width="260" height="260" mask="url(#fa)"></rect><g transform="translate(15.32 -12.86) translate(50 50) rotate(-40) scale(1 -1) rotate(40) translate(-50 -50)"><rect x="-80" y="-80" width="260" height="260" mask="url(#fb)"></rect></g></g></svg>